Miami Magma (2011) [DVDRip][Spanish]
 
http://www.imdb.es/title/tt1808304/

Titulo Original: Miami Magma (AKA World on Fire) (TV)
Año: 2011
Pais: Estados Unidos
Director: Todor Chapkanov
Guion: Declan O'Brien
Musica: Andrew Morgan Smith
Fotografia: Lorenzo Senatore
Reparto: Rachel Hunter, Melissa Ordway, Cleavant Derricks, Brad Dourif, Stacey Asaro, Owen Davis
Productora: Activity Film Services / Bullet Films / Activity Film Services / Sweet Post Productions
Gener: Ciencia ficción | Volcanes

 
Sinopsis: 
La película sigue a la prodigiosa vulcanóloga Antonieta Vitrini y a su hermana Emily en su intento de dar la alarma sobre un plan de perforación de petróleo ilegal antes de que se ponga en marcha la erupción de un súper-volcán que se encuentra directamente debajo de Miami.


Estrenada en Diciembre de 2011 en la cadena de Ciencia Ficción 'SciFi' os traigo en riguroso estreno y en castellano, ésta entretenida y
catastrófica peli que dirige Todor Chapkanov [Monsterwolf, Weather Wars] protagonizada por Brad Dourif, Rachel Hunter y Cleavant Derris.

Format : AVI
Format/Info : Audio Video Interleave
File size : 689 MiB
Duration : 1h 23mn
Overall bit rate : 1 149 Kbps
Writing application : VirtualDubMod 1.5.1.1a (build 1155/release)
Writing library : VirtualDub build 32839/release

Video
ID : 0
Format : MPEG-4 Visual
Format profile : Advanced Simple@L5
Format settings, BVOP : 2
Format settings, QPel : No
Format settings, GMC : No warppoints
Format settings, Matrix : Default (H.263)
Muxing mode : Packed bitstream
Codec ID : XVID
Codec ID/Hint : XviD
Duration : 1h 23mn
Bit rate : 947 Kbps
Width : 720 pixels
Height : 416 pixels
Display aspect ratio : 16:9
Frame rate : 25.000 fps
Color space : YUV
Chroma subsampling : 4:2:0
Bit depth : 8 bits
Scan type : Progressive
Compression mode : Lossy
Bits/(Pixel*Frame) : 0.126
Stream size : 568 MiB (82%)
Writing library : XviD 64

Audio
ID : 1
Format : AC-3
Format/Info : Audio Coding 3
Mode extension : CM (complete main)
Codec ID : 2000
Duration : 1h 23mn
Bit rate mode : Constant
Bit rate : 192 Kbps
Channel(s) : 2 channels
Channel positions : Front: L R
Sampling rate : 48.0 KHz
Bit depth : 16 bits
Compression mode : Lossy
Stream size : 115 MiB (17%)
Alignment : Aligned on interleaves
Interleave, duration : 40 ms (1.00 video frame)
Interleave, preload duration : 512 ms

